<svg xmlns="http://www.w3.org/2000/svg" xmlns:xlink="http://www.w3.org/1999/xlink" width="500" zoomAndPan="magnify" viewBox="0 0 375 374.999991" height="500" preserveAspectRatio="xMidYMid meet" version="1.0"><defs><g/><clipPath id="e555bde4d3"><path d="M 164.445312 140.027344 L 210.554688 140.027344 L 210.554688 186.132812 L 164.445312 186.132812 Z M 164.445312 140.027344 " clip-rule="nonzero"/></clipPath><clipPath id="a1557ef833"><path d="M 187.5 140.027344 C 174.769531 140.027344 164.445312 150.347656 164.445312 163.082031 C 164.445312 175.8125 174.769531 186.132812 187.5 186.132812 C 200.230469 186.132812 210.554688 175.8125 210.554688 163.082031 C 210.554688 150.347656 200.230469 140.027344 187.5 140.027344 " clip-rule="nonzero"/></clipPath><clipPath id="83358a27d9"><path d="M 215.433594 192.761719 L 231.949219 192.761719 L 231.949219 209.277344 L 215.433594 209.277344 Z M 215.433594 192.761719 " clip-rule="nonzero"/></clipPath><clipPath id="b3375302ed"><path d="M 223.691406 192.761719 C 219.128906 192.761719 215.433594 196.457031 215.433594 201.019531 C 215.433594 205.582031 219.128906 209.277344 223.691406 209.277344 C 228.253906 209.277344 231.949219 205.582031 231.949219 201.019531 C 231.949219 196.457031 228.253906 192.761719 223.691406 192.761719 " clip-rule="nonzero"/></clipPath><clipPath id="3fda983eea"><path d="M 150.828125 125.390625 L 224.328125 125.390625 L 224.328125 222.792969 L 150.828125 222.792969 Z M 150.828125 125.390625 " clip-rule="nonzero"/></clipPath><clipPath id="eab449d06c"><path d="M 210.554688 187.515625 L 236.804688 187.515625 L 236.804688 222.734375 L 210.554688 222.734375 Z M 210.554688 187.515625 " clip-rule="nonzero"/></clipPath></defs><rect x="-37.5" width="450" fill="#ffffff" y="-37.499999" height="449.999989" fill-opacity="1"/><rect x="-37.5" width="450" fill="#ffffff" y="-37.499999" height="449.999989" fill-opacity="1"/><rect x="-37.5" width="450" fill="#ffffff" y="-37.499999" height="449.999989" fill-opacity="1"/><g clip-path="url(#e555bde4d3)"><g clip-path="url(#a1557ef833)"><path fill="#7ed957" d="M 164.445312 140.027344 L 210.554688 140.027344 L 210.554688 186.132812 L 164.445312 186.132812 Z M 164.445312 140.027344 " fill-opacity="1" fill-rule="nonzero"/></g></g><g clip-path="url(#83358a27d9)"><g clip-path="url(#b3375302ed)"><path fill="#7ed957" d="M 215.433594 192.761719 L 231.949219 192.761719 L 231.949219 209.277344 L 215.433594 209.277344 Z M 215.433594 192.761719 " fill-opacity="1" fill-rule="nonzero"/></g></g><g clip-path="url(#3fda983eea)"><path fill="#100f0d" d="M 193.351562 197.308594 L 192.953125 184.589844 C 198.320312 183.394531 202.128906 178.628906 202.109375 173.136719 C 202.109375 172.863281 201.886719 172.640625 201.613281 172.640625 L 197.910156 172.640625 C 197.632812 172.640625 197.410156 172.863281 197.410156 173.136719 C 197.445312 176.097656 195.601562 178.753906 192.8125 179.757812 L 192.355469 165.046875 C 196.425781 164.117188 199.304688 160.492188 199.28125 156.324219 C 199.28125 156.046875 199.058594 155.824219 198.785156 155.824219 L 195.101562 155.824219 C 194.828125 155.824219 194.605469 156.046875 194.605469 156.324219 C 194.621094 157.949219 193.699219 159.441406 192.234375 160.160156 L 191.859375 148.113281 C 191.847656 147.847656 191.625 147.636719 191.359375 147.636719 L 183.835938 147.636719 C 183.566406 147.636719 183.347656 147.847656 183.335938 148.113281 L 182.957031 160.160156 C 181.503906 159.433594 180.59375 157.945312 180.609375 156.324219 C 180.609375 156.046875 180.386719 155.824219 180.113281 155.824219 L 176.410156 155.824219 C 176.132812 155.824219 175.910156 156.046875 175.910156 156.324219 C 175.898438 160.476562 178.765625 164.09375 182.820312 165.027344 L 182.359375 179.757812 C 179.585938 178.734375 177.742188 176.09375 177.742188 173.136719 C 177.742188 172.863281 177.519531 172.640625 177.246094 172.640625 L 173.542969 172.640625 C 173.265625 172.640625 173.046875 172.863281 173.046875 173.136719 C 173.023438 178.621094 176.824219 183.386719 182.183594 184.589844 L 182.222656 184.589844 L 181.824219 197.308594 C 164.683594 194.527344 151.824219 179.480469 151.824219 162.085938 C 151.824219 142.386719 167.867188 126.386719 187.578125 126.386719 C 207.285156 126.386719 223.332031 142.386719 223.332031 162.085938 C 223.332031 179.480469 210.492188 194.507812 193.371094 197.308594 Z M 193.390625 198.304688 C 194.945312 198.058594 196.480469 197.714844 197.988281 197.269531 C 197.566406 199.742188 195.859375 201.800781 193.507812 202.675781 Z M 177.246094 197.289062 C 178.742188 197.726562 180.265625 198.0625 181.804688 198.304688 L 181.664062 202.636719 C 179.355469 201.75 177.679688 199.722656 177.246094 197.289062 Z M 201.8125 195.917969 C 201.8125 195.964844 201.8125 196.011719 201.8125 196.058594 C 201.832031 201.078125 198.355469 205.433594 193.449219 206.535156 L 193.171875 206.574219 C 192.898438 206.574219 192.671875 206.796875 192.671875 207.070312 C 192.671875 207.078125 192.671875 207.082031 192.671875 207.089844 L 193.132812 221.820312 L 182.0625 221.820312 L 182.519531 207.089844 C 182.53125 206.816406 182.320312 206.585938 182.042969 206.574219 L 181.804688 206.535156 C 176.902344 205.433594 173.421875 201.078125 173.441406 196.058594 C 173.441406 196.019531 173.441406 195.980469 173.441406 195.957031 L 173.640625 196.039062 L 174.378906 196.335938 L 174.417969 196.335938 L 175.113281 196.59375 L 175.175781 196.59375 L 175.890625 196.851562 L 175.929688 196.851562 L 176.210938 196.953125 C 176.578125 200.191406 178.863281 202.894531 182.003906 203.789062 C 182.265625 203.867188 182.542969 203.714844 182.621094 203.453125 C 182.632812 203.414062 182.640625 203.375 182.640625 203.332031 L 183.238281 184.152344 C 183.242188 184.019531 183.191406 183.890625 183.097656 183.792969 C 182.996094 183.683594 182.847656 183.625 182.699219 183.632812 L 182.421875 183.59375 C 177.695312 182.539062 174.265625 178.445312 174.058594 173.617188 L 176.765625 173.617188 C 176.980469 177.066406 179.378906 179.992188 182.71875 180.890625 C 182.988281 180.957031 183.257812 180.796875 183.324219 180.527344 C 183.332031 180.496094 183.335938 180.464844 183.335938 180.433594 L 183.816406 164.609375 C 183.828125 164.335938 183.613281 164.105469 183.339844 164.09375 C 183.339844 164.09375 183.335938 164.09375 183.335938 164.09375 L 183.097656 164.054688 C 179.652344 163.28125 177.132812 160.320312 176.925781 156.800781 L 179.632812 156.800781 C 179.820312 158.910156 181.269531 160.703125 183.296875 161.332031 C 183.5625 161.410156 183.835938 161.257812 183.914062 160.992188 C 183.925781 160.953125 183.933594 160.914062 183.933594 160.875 L 184.3125 148.589844 L 190.863281 148.589844 L 191.242188 160.875 C 191.25 161.148438 191.484375 161.363281 191.757812 161.351562 C 191.796875 161.347656 191.839844 161.34375 191.878906 161.332031 C 193.914062 160.710938 195.371094 158.917969 195.558594 156.800781 L 198.269531 156.800781 C 198.0625 160.320312 195.542969 163.28125 192.097656 164.054688 L 191.835938 164.09375 C 191.5625 164.105469 191.347656 164.335938 191.359375 164.609375 L 191.835938 180.433594 C 191.847656 180.707031 192.082031 180.921875 192.355469 180.910156 C 192.394531 180.910156 192.4375 180.902344 192.472656 180.890625 C 195.808594 179.984375 198.195312 177.058594 198.40625 173.617188 L 201.113281 173.617188 C 200.90625 178.445312 197.480469 182.539062 192.753906 183.59375 L 192.457031 183.632812 C 192.179688 183.632812 191.957031 183.855469 191.957031 184.128906 C 191.957031 184.136719 191.957031 184.144531 191.957031 184.152344 L 192.554688 203.332031 C 192.566406 203.609375 192.796875 203.820312 193.070312 203.808594 C 193.113281 203.808594 193.152344 203.800781 193.191406 203.789062 C 196.378906 202.917969 198.707031 200.191406 199.0625 196.914062 L 199.261719 196.851562 L 199.324219 196.851562 L 200 196.613281 L 200.078125 196.574219 L 200.757812 196.316406 L 200.816406 196.316406 Z M 187.578125 125.390625 C 167.3125 125.390625 150.828125 141.851562 150.828125 162.085938 C 150.835938 176.515625 159.3125 189.597656 172.488281 195.519531 C 172.449219 195.691406 172.429688 195.863281 172.425781 196.039062 C 172.398438 201.503906 176.171875 206.261719 181.503906 207.488281 L 181.066406 221.800781 L 175.175781 221.800781 C 174.898438 221.800781 174.675781 222.023438 174.675781 222.296875 C 174.675781 222.570312 174.898438 222.792969 175.175781 222.792969 L 199.980469 222.792969 C 200.253906 222.792969 200.476562 222.570312 200.476562 222.296875 C 200.476562 222.023438 200.253906 221.800781 199.980469 221.800781 L 194.105469 221.800781 L 193.667969 207.488281 C 199.027344 206.285156 202.828125 201.523438 202.808594 196.039062 C 202.808594 195.851562 202.789062 195.664062 202.746094 195.480469 C 215.878906 189.539062 224.316406 176.480469 224.328125 162.085938 C 224.328125 141.851562 207.84375 125.390625 187.578125 125.390625 " fill-opacity="1" fill-rule="nonzero"/></g><g clip-path="url(#eab449d06c)"><path fill="#100f0d" d="M 225.742188 213.519531 L 225.597656 208.921875 C 227.515625 208.488281 228.875 206.765625 228.867188 204.78125 C 228.867188 204.679688 228.789062 204.601562 228.691406 204.601562 L 227.367188 204.601562 C 227.269531 204.601562 227.191406 204.679688 227.191406 204.78125 C 227.203125 205.851562 226.542969 206.808594 225.546875 207.171875 L 225.386719 201.855469 C 226.839844 201.519531 227.867188 200.207031 227.859375 198.699219 C 227.859375 198.601562 227.78125 198.519531 227.679688 198.519531 L 226.367188 198.519531 C 226.269531 198.519531 226.1875 198.601562 226.1875 198.699219 C 226.195312 199.289062 225.863281 199.828125 225.34375 200.085938 L 225.207031 195.730469 C 225.203125 195.632812 225.125 195.558594 225.03125 195.558594 L 222.34375 195.558594 C 222.246094 195.558594 222.167969 195.632812 222.164062 195.730469 L 222.027344 200.085938 C 221.507812 199.824219 221.183594 199.285156 221.191406 198.699219 C 221.191406 198.601562 221.109375 198.519531 221.011719 198.519531 L 219.691406 198.519531 C 219.589844 198.519531 219.511719 198.601562 219.511719 198.699219 C 219.507812 200.203125 220.53125 201.507812 221.980469 201.847656 L 221.816406 207.171875 C 220.824219 206.804688 220.167969 205.847656 220.167969 204.78125 C 220.167969 204.679688 220.085938 204.601562 219.988281 204.601562 L 218.667969 204.601562 C 218.566406 204.601562 218.488281 204.679688 218.488281 204.78125 C 218.480469 206.761719 219.839844 208.484375 221.75 208.921875 L 221.765625 208.921875 L 221.625 213.519531 C 215.503906 212.515625 210.910156 207.074219 210.910156 200.785156 C 210.910156 193.660156 216.640625 187.875 223.679688 187.875 C 230.71875 187.875 236.449219 193.660156 236.449219 200.785156 C 236.449219 207.074219 231.863281 212.507812 225.746094 213.519531 Z M 225.753906 213.878906 C 226.308594 213.792969 226.859375 213.667969 227.398438 213.507812 C 227.246094 214.398438 226.636719 215.144531 225.796875 215.460938 Z M 219.988281 213.511719 C 220.523438 213.671875 221.066406 213.792969 221.617188 213.878906 L 221.566406 215.445312 C 220.742188 215.125 220.144531 214.394531 219.988281 213.511719 Z M 228.761719 213.015625 C 228.761719 213.035156 228.761719 213.050781 228.761719 213.066406 C 228.769531 214.882812 227.527344 216.457031 225.777344 216.855469 L 225.675781 216.871094 C 225.578125 216.871094 225.5 216.949219 225.5 217.050781 C 225.5 217.050781 225.5 217.054688 225.5 217.058594 L 225.664062 222.382812 L 221.710938 222.382812 L 221.871094 217.058594 C 221.875 216.957031 221.800781 216.875 221.703125 216.871094 L 221.617188 216.855469 C 219.867188 216.457031 218.625 214.882812 218.628906 213.066406 C 218.628906 213.054688 218.628906 213.039062 218.628906 213.03125 L 218.703125 213.058594 L 218.964844 213.167969 L 218.980469 213.167969 L 219.226562 213.261719 L 219.25 213.261719 L 219.503906 213.355469 L 219.519531 213.355469 L 219.617188 213.390625 C 219.75 214.5625 220.566406 215.539062 221.6875 215.863281 C 221.78125 215.890625 221.878906 215.835938 221.910156 215.742188 C 221.914062 215.726562 221.914062 215.714844 221.914062 215.699219 L 222.128906 208.761719 C 222.128906 208.714844 222.113281 208.667969 222.078125 208.632812 C 222.042969 208.59375 221.988281 208.570312 221.9375 208.574219 L 221.835938 208.5625 C 220.148438 208.179688 218.925781 206.699219 218.851562 204.953125 L 219.816406 204.953125 C 219.894531 206.199219 220.75 207.257812 221.945312 207.582031 C 222.039062 207.605469 222.136719 207.546875 222.160156 207.453125 C 222.160156 207.441406 222.164062 207.429688 222.164062 207.417969 L 222.335938 201.695312 C 222.339844 201.597656 222.261719 201.511719 222.164062 201.507812 L 222.078125 201.496094 C 220.847656 201.214844 219.949219 200.144531 219.875 198.871094 L 220.839844 198.871094 C 220.910156 199.636719 221.425781 200.28125 222.148438 200.511719 C 222.246094 200.539062 222.34375 200.484375 222.371094 200.386719 C 222.375 200.375 222.378906 200.359375 222.378906 200.34375 L 222.511719 195.902344 L 224.851562 195.902344 L 224.988281 200.34375 C 224.992188 200.445312 225.074219 200.519531 225.171875 200.515625 C 225.1875 200.515625 225.199219 200.515625 225.214844 200.511719 C 225.941406 200.285156 226.460938 199.636719 226.53125 198.871094 L 227.496094 198.871094 C 227.421875 200.144531 226.523438 201.214844 225.292969 201.496094 L 225.199219 201.507812 C 225.101562 201.511719 225.027344 201.597656 225.03125 201.695312 L 225.199219 207.417969 C 225.203125 207.515625 225.285156 207.59375 225.386719 207.589844 C 225.398438 207.589844 225.414062 207.585938 225.425781 207.582031 C 226.617188 207.257812 227.472656 206.199219 227.546875 204.953125 L 228.511719 204.953125 C 228.4375 206.699219 227.214844 208.179688 225.527344 208.5625 L 225.421875 208.574219 C 225.324219 208.574219 225.242188 208.65625 225.242188 208.753906 C 225.242188 208.757812 225.242188 208.757812 225.242188 208.761719 L 225.457031 215.699219 C 225.460938 215.796875 225.542969 215.875 225.640625 215.871094 C 225.65625 215.871094 225.667969 215.867188 225.683594 215.863281 C 226.820312 215.550781 227.652344 214.5625 227.78125 213.375 L 227.851562 213.355469 L 227.875 213.355469 L 228.117188 213.269531 L 228.144531 213.253906 L 228.386719 213.160156 L 228.40625 213.160156 Z M 223.679688 187.515625 C 216.441406 187.515625 210.554688 193.464844 210.554688 200.785156 C 210.558594 206 213.585938 210.730469 218.289062 212.875 C 218.273438 212.933594 218.269531 212.996094 218.269531 213.058594 C 218.257812 215.039062 219.605469 216.757812 221.511719 217.199219 L 221.355469 222.375 L 219.25 222.375 C 219.152344 222.375 219.070312 222.457031 219.070312 222.554688 C 219.070312 222.65625 219.152344 222.734375 219.25 222.734375 L 228.109375 222.734375 C 228.207031 222.734375 228.285156 222.65625 228.285156 222.554688 C 228.285156 222.457031 228.207031 222.375 228.109375 222.375 L 226.011719 222.375 L 225.855469 217.199219 C 227.769531 216.765625 229.125 215.042969 229.117188 213.058594 C 229.117188 212.992188 229.113281 212.925781 229.097656 212.859375 C 233.785156 210.710938 236.800781 205.988281 236.804688 200.785156 C 236.804688 193.464844 230.917969 187.515625 223.679688 187.515625 " fill-opacity="1" fill-rule="nonzero"/></g><g fill="#7ed957" fill-opacity="1"><g transform="translate(132.452758, 243.504169)"><g><path d="M 0.210938 0 L 2.539062 -15.414062 L 5.304688 -15.414062 L 7.632812 0 L 5.429688 0 L 5.011719 -3.144531 L 2.832031 -3.144531 L 2.410156 0 Z M 4.046875 -10.402344 L 3.984375 -10.800781 L 3.859375 -10.800781 L 3.796875 -10.402344 L 3.144531 -5.535156 L 4.699219 -5.535156 Z M 4.046875 -10.402344 "/></g></g></g><g fill="#7ed957" fill-opacity="1"><g transform="translate(141.950297, 243.504169)"><g><path d="M 3.230469 -8.03125 L 3.039062 -8.746094 L 2.914062 -8.746094 L 2.914062 0 L 0.839844 0 L 0.839844 -15.414062 L 2.851562 -15.414062 L 5.054688 -7.382812 L 5.242188 -6.667969 L 5.367188 -6.667969 L 5.367188 -15.414062 L 7.445312 -15.414062 L 7.445312 0 L 5.429688 0 Z M 3.230469 -8.03125 "/></g></g></g><g fill="#7ed957" fill-opacity="1"><g transform="translate(151.888091, 243.504169)"><g><path d="M 0.839844 -15.414062 L 3.105469 -15.414062 L 3.105469 0 L 0.839844 0 Z M 0.839844 -15.414062 "/></g></g></g><g fill="#7ed957" fill-opacity="1"><g transform="translate(157.486158, 243.504169)"><g><path d="M 4.59375 0 L 3.144531 -9.6875 L 3.0625 -10.339844 L 2.9375 -10.339844 L 2.9375 0 L 0.839844 0 L 0.839844 -15.414062 L 3.605469 -15.414062 L 4.949219 -8.367188 L 5.054688 -7.550781 L 5.097656 -7.550781 L 5.199219 -8.367188 L 6.542969 -15.414062 L 9.3125 -15.414062 L 9.3125 0 L 7.214844 0 L 7.214844 -10.339844 L 7.085938 -10.339844 L 7.003906 -9.6875 L 5.558594 0 Z M 4.59375 0 "/></g></g></g><g fill="#7ed957" fill-opacity="1"><g transform="translate(169.289831, 243.504169)"><g><path d="M 0.210938 0 L 2.539062 -15.414062 L 5.304688 -15.414062 L 7.632812 0 L 5.429688 0 L 5.011719 -3.144531 L 2.832031 -3.144531 L 2.410156 0 Z M 4.046875 -10.402344 L 3.984375 -10.800781 L 3.859375 -10.800781 L 3.796875 -10.402344 L 3.144531 -5.535156 L 4.699219 -5.535156 Z M 4.046875 -10.402344 "/></g></g></g><g fill="#7ed957" fill-opacity="1"><g transform="translate(178.787371, 243.504169)"><g><path d="M 0.839844 -15.414062 L 3.105469 -15.414062 L 3.105469 -2.097656 L 6.101562 -2.097656 L 6.101562 0 L 0.839844 0 Z M 0.839844 -15.414062 "/></g></g></g><g fill="#7ed957" fill-opacity="1"><g transform="translate(186.628685, 243.504169)"><g/></g></g><g fill="#7ed957" fill-opacity="1"><g transform="translate(191.513944, 243.504169)"><g><path d="M 0.839844 -15.414062 L 3.105469 -15.414062 C 4.089844 -15.414062 5.074219 -15.160156 5.828125 -14.449219 C 6.585938 -13.734375 7.085938 -12.5625 7.085938 -10.800781 C 7.085938 -9.039062 6.585938 -7.882812 5.828125 -7.171875 C 5.074219 -6.457031 4.089844 -6.164062 3.105469 -6.164062 L 3.105469 0 L 0.839844 0 Z M 3.105469 -8.472656 C 3.796875 -8.472656 4.234375 -8.597656 4.488281 -8.953125 C 4.738281 -9.289062 4.800781 -9.855469 4.800781 -10.714844 C 4.800781 -11.574219 4.738281 -12.183594 4.488281 -12.5625 C 4.234375 -12.9375 3.796875 -13.105469 3.105469 -13.105469 Z M 3.105469 -8.472656 "/></g></g></g><g fill="#7ed957" fill-opacity="1"><g transform="translate(200.55025, 243.504169)"><g><path d="M 0.839844 -15.414062 L 3.105469 -15.414062 L 3.105469 -2.097656 L 6.101562 -2.097656 L 6.101562 0 L 0.839844 0 Z M 0.839844 -15.414062 "/></g></g></g><g fill="#7ed957" fill-opacity="1"><g transform="translate(208.391564, 243.504169)"><g><path d="M 0.210938 0 L 2.539062 -15.414062 L 5.304688 -15.414062 L 7.632812 0 L 5.429688 0 L 5.011719 -3.144531 L 2.832031 -3.144531 L 2.410156 0 Z M 4.046875 -10.402344 L 3.984375 -10.800781 L 3.859375 -10.800781 L 3.796875 -10.402344 L 3.144531 -5.535156 L 4.699219 -5.535156 Z M 4.046875 -10.402344 "/></g></g></g><g fill="#7ed957" fill-opacity="1"><g transform="translate(217.889101, 243.504169)"><g><path d="M 3.230469 -8.03125 L 3.039062 -8.746094 L 2.914062 -8.746094 L 2.914062 0 L 0.839844 0 L 0.839844 -15.414062 L 2.851562 -15.414062 L 5.054688 -7.382812 L 5.242188 -6.667969 L 5.367188 -6.667969 L 5.367188 -15.414062 L 7.445312 -15.414062 L 7.445312 0 L 5.429688 0 Z M 3.230469 -8.03125 "/></g></g></g><g fill="#7ed957" fill-opacity="1"><g transform="translate(227.826892, 243.504169)"><g><path d="M 0.839844 -15.414062 L 6.019531 -15.414062 L 6.019531 -13.085938 L 3.105469 -13.085938 L 3.105469 -9.039062 L 5.199219 -9.039062 L 5.199219 -6.5625 L 3.105469 -6.5625 L 3.105469 -2.328125 L 6.019531 -2.328125 L 6.019531 0 L 0.839844 0 Z M 0.839844 -15.414062 "/></g></g></g><g fill="#7ed957" fill-opacity="1"><g transform="translate(235.919781, 243.504169)"><g><path d="M 0.0429688 -13.085938 L 0.0429688 -15.414062 L 6.585938 -15.414062 L 6.585938 -13.085938 L 4.445312 -13.085938 L 4.445312 0 L 2.179688 0 L 2.179688 -13.085938 Z M 0.0429688 -13.085938 "/></g></g></g><path stroke-linecap="round" transform="matrix(0.750373, 0, 0, 0.75, 128.653136, 221.657124)" fill="none" stroke-linejoin="miter" d="M 0.998447 0.998835 L 155.926538 0.998835 " stroke="#000000" stroke-width="2" stroke-opacity="1" stroke-miterlimit="4"/><path stroke-linecap="round" transform="matrix(0.750373, 0, 0, 0.75, 128.653136, 248.157113)" fill="none" stroke-linejoin="miter" d="M 0.998447 0.998849 L 155.926538 0.998849 " stroke="#000000" stroke-width="2" stroke-opacity="1" stroke-miterlimit="4"/><g fill="#000000" fill-opacity="1"><g transform="translate(141.468858, 260.589483)"><g><path d="M 0.484375 0 L 0.484375 -8.914062 L 1.515625 -8.914062 C 2.730469 -8.914062 3.382812 -8.671875 3.734375 -7.992188 C 4.074219 -7.3125 4.125 -6.199219 4.125 -4.449219 C 4.125 -2.703125 4.074219 -1.601562 3.734375 -0.921875 C 3.382812 -0.242188 2.730469 0 1.515625 0 Z M 1.792969 -1.308594 C 2.242188 -1.308594 2.5 -1.359375 2.632812 -1.792969 C 2.691406 -2 2.742188 -2.316406 2.753906 -2.742188 C 2.765625 -3.164062 2.765625 -3.734375 2.765625 -4.464844 C 2.765625 -5.191406 2.765625 -5.761719 2.753906 -6.183594 C 2.742188 -6.597656 2.691406 -6.914062 2.632812 -7.132812 C 2.5 -7.554688 2.242188 -7.605469 1.792969 -7.605469 Z M 1.792969 -1.308594 "/></g></g></g><g fill="#000000" fill-opacity="1"><g transform="translate(146.93743, 260.589483)"><g><path d="M 0.484375 -8.914062 L 1.792969 -8.914062 L 1.792969 0 L 0.484375 0 Z M 0.484375 -8.914062 "/></g></g></g><g fill="#000000" fill-opacity="1"><g transform="translate(150.175026, 260.589483)"><g><path d="M 2.65625 -6.523438 C 2.65625 -6.816406 2.644531 -7.144531 2.558594 -7.398438 C 2.472656 -7.640625 2.339844 -7.808594 2.132812 -7.808594 C 1.792969 -7.796875 1.6875 -7.445312 1.6875 -6.925781 C 1.6875 -6.621094 1.820312 -6.304688 2.011719 -5.96875 C 2.207031 -5.628906 2.460938 -5.277344 2.714844 -4.898438 C 3.019531 -4.449219 3.324219 -3.988281 3.554688 -3.542969 C 3.785156 -3.09375 3.941406 -2.632812 3.941406 -2.148438 C 3.941406 -1.550781 3.84375 -0.996094 3.566406 -0.582031 C 3.285156 -0.167969 2.839844 0.0976562 2.121094 0.0976562 C 1.285156 0.0976562 0.8125 -0.21875 0.546875 -0.703125 C 0.277344 -1.1875 0.21875 -1.832031 0.21875 -2.5 L 1.503906 -2.621094 C 1.503906 -2.242188 1.515625 -1.867188 1.613281 -1.589844 C 1.699219 -1.296875 1.84375 -1.105469 2.121094 -1.105469 C 2.511719 -1.105469 2.65625 -1.515625 2.65625 -2.085938 C 2.65625 -2.378906 2.511719 -2.714844 2.316406 -3.066406 C 2.207031 -3.238281 2.097656 -3.421875 1.976562 -3.601562 C 1.722656 -3.964844 1.441406 -4.378906 1.152344 -4.828125 C 0.859375 -5.277344 0.644531 -5.738281 0.507812 -6.210938 C 0.4375 -6.441406 0.398438 -6.683594 0.398438 -6.925781 C 0.398438 -7.410156 0.507812 -7.929688 0.789062 -8.332031 C 1.066406 -8.71875 1.492188 -9 2.109375 -9.011719 C 2.898438 -9.023438 3.359375 -8.695312 3.613281 -8.222656 C 3.867188 -7.738281 3.941406 -7.144531 3.941406 -6.644531 Z M 2.65625 -6.523438 "/></g></g></g><g fill="#000000" fill-opacity="1"><g transform="translate(155.291978, 260.589483)"><g><path d="M 3.894531 -3.054688 L 3.894531 -1.832031 C 3.882812 -1.46875 3.808594 -1.140625 3.675781 -0.859375 C 3.566406 -0.617188 3.394531 -0.386719 3.152344 -0.207031 C 2.910156 -0.0117188 2.582031 0.0976562 2.148438 0.0976562 C 1.710938 0.0976562 1.371094 -0.0117188 1.128906 -0.207031 C 0.886719 -0.386719 0.726562 -0.617188 0.617188 -0.859375 C 0.484375 -1.140625 0.414062 -1.46875 0.398438 -1.832031 L 0.398438 -7.082031 C 0.414062 -7.433594 0.484375 -7.761719 0.617188 -8.039062 C 0.726562 -8.285156 0.886719 -8.527344 1.128906 -8.707031 C 1.371094 -8.890625 1.710938 -9.011719 2.148438 -9.011719 C 2.582031 -9.011719 2.910156 -8.890625 3.152344 -8.707031 C 3.394531 -8.527344 3.566406 -8.285156 3.675781 -8.039062 C 3.808594 -7.761719 3.882812 -7.433594 3.894531 -7.082031 L 3.894531 -5.859375 L 2.667969 -5.859375 L 2.667969 -7.082031 C 2.667969 -7.324219 2.609375 -7.496094 2.472656 -7.640625 C 2.414062 -7.699219 2.304688 -7.738281 2.171875 -7.738281 C 1.941406 -7.738281 1.832031 -7.566406 1.769531 -7.410156 C 1.734375 -7.3125 1.722656 -7.203125 1.710938 -7.082031 L 1.710938 -1.832031 C 1.722656 -1.578125 1.792969 -1.40625 1.917969 -1.273438 C 1.976562 -1.210938 2.0625 -1.175781 2.171875 -1.175781 C 2.449219 -1.175781 2.558594 -1.320312 2.621094 -1.503906 C 2.65625 -1.589844 2.667969 -1.699219 2.667969 -1.832031 L 2.667969 -3.054688 Z M 3.894531 -3.054688 "/></g></g></g><g fill="#000000" fill-opacity="1"><g transform="translate(160.4453, 260.589483)"><g><path d="M 3.894531 -1.832031 C 3.882812 -1.46875 3.808594 -1.140625 3.675781 -0.859375 C 3.566406 -0.617188 3.394531 -0.386719 3.152344 -0.207031 C 2.910156 -0.0117188 2.582031 0.0976562 2.148438 0.0976562 C 1.710938 0.0976562 1.371094 -0.0117188 1.128906 -0.207031 C 0.886719 -0.386719 0.726562 -0.617188 0.617188 -0.859375 C 0.484375 -1.140625 0.414062 -1.46875 0.398438 -1.832031 L 0.398438 -7.082031 C 0.414062 -7.433594 0.484375 -7.761719 0.617188 -8.039062 C 0.726562 -8.285156 0.886719 -8.527344 1.128906 -8.707031 C 1.371094 -8.890625 1.710938 -9.011719 2.148438 -9.011719 C 2.582031 -9.011719 2.910156 -8.890625 3.152344 -8.707031 C 3.394531 -8.527344 3.566406 -8.285156 3.675781 -8.039062 C 3.808594 -7.761719 3.882812 -7.433594 3.894531 -7.082031 Z M 2.582031 -7.082031 C 2.582031 -7.324219 2.535156 -7.496094 2.414062 -7.640625 C 2.351562 -7.699219 2.253906 -7.738281 2.148438 -7.738281 C 1.917969 -7.738281 1.808594 -7.566406 1.757812 -7.410156 C 1.722656 -7.3125 1.710938 -7.203125 1.710938 -7.082031 L 1.710938 -1.832031 C 1.710938 -1.578125 1.769531 -1.40625 1.890625 -1.273438 C 1.953125 -1.210938 2.039062 -1.175781 2.148438 -1.175781 C 2.378906 -1.175781 2.484375 -1.320312 2.535156 -1.503906 C 2.570312 -1.589844 2.582031 -1.699219 2.582031 -1.832031 Z M 2.582031 -7.082031 "/></g></g></g><g fill="#000000" fill-opacity="1"><g transform="translate(165.695624, 260.589483)"><g><path d="M 2.863281 -8.914062 L 4.136719 -8.914062 L 2.777344 0 L 1.46875 0 L 0.109375 -8.914062 L 1.382812 -8.914062 L 2.039062 -4.015625 L 2.085938 -3.636719 L 2.160156 -3.636719 L 2.207031 -4.015625 Z M 2.863281 -8.914062 "/></g></g></g><g fill="#000000" fill-opacity="1"><g transform="translate(170.897446, 260.589483)"><g><path d="M 0.484375 -8.914062 L 3.480469 -8.914062 L 3.480469 -7.566406 L 1.792969 -7.566406 L 1.792969 -5.226562 L 3.007812 -5.226562 L 3.007812 -3.796875 L 1.792969 -3.796875 L 1.792969 -1.347656 L 3.480469 -1.347656 L 3.480469 0 L 0.484375 0 Z M 0.484375 -8.914062 "/></g></g></g><g fill="#000000" fill-opacity="1"><g transform="translate(175.577901, 260.589483)"><g><path d="M 2.824219 0 L 2.148438 -3.757812 L 1.792969 -3.757812 L 1.792969 0 L 0.484375 0 L 0.484375 -8.914062 L 1.792969 -8.914062 C 3.359375 -8.914062 4.027344 -8.027344 4.027344 -6.34375 C 4.027344 -5.457031 3.796875 -4.65625 3.296875 -4.316406 L 4.136719 0 Z M 1.792969 -4.972656 C 1.976562 -4.972656 2.21875 -4.996094 2.414062 -5.167969 C 2.609375 -5.335938 2.765625 -5.664062 2.765625 -6.292969 C 2.765625 -6.925781 2.609375 -7.265625 2.414062 -7.433594 C 2.21875 -7.605469 1.976562 -7.617188 1.792969 -7.617188 Z M 1.792969 -4.972656 "/></g></g></g><g fill="#000000" fill-opacity="1"><g transform="translate(180.913094, 260.589483)"><g><path d="M 0.484375 -8.914062 L 1.792969 -8.914062 L 1.792969 0 L 0.484375 0 Z M 0.484375 -8.914062 "/></g></g></g><g fill="#000000" fill-opacity="1"><g transform="translate(184.150689, 260.589483)"><g><path d="M 1.867188 -4.644531 L 1.757812 -5.058594 L 1.6875 -5.058594 L 1.6875 0 L 0.484375 0 L 0.484375 -8.914062 L 1.648438 -8.914062 L 2.921875 -4.269531 L 3.03125 -3.855469 L 3.105469 -3.855469 L 3.105469 -8.914062 L 4.304688 -8.914062 L 4.304688 0 L 3.140625 0 Z M 1.867188 -4.644531 "/></g></g></g><g fill="#000000" fill-opacity="1"><g transform="translate(189.898127, 260.589483)"><g><path d="M 2.582031 -5.710938 L 2.582031 -7.082031 C 2.582031 -7.324219 2.535156 -7.496094 2.414062 -7.640625 C 2.351562 -7.699219 2.253906 -7.738281 2.148438 -7.738281 C 1.917969 -7.738281 1.808594 -7.566406 1.757812 -7.410156 C 1.722656 -7.3125 1.710938 -7.203125 1.710938 -7.082031 L 1.710938 -1.722656 C 1.710938 -1.46875 1.769531 -1.296875 1.890625 -1.164062 C 1.953125 -1.105469 2.039062 -1.066406 2.148438 -1.066406 C 2.378906 -1.066406 2.484375 -1.210938 2.535156 -1.394531 C 2.570312 -1.480469 2.582031 -1.589844 2.582031 -1.722656 L 2.582031 -3.335938 L 2.0625 -3.335938 L 2.0625 -4.4375 L 3.894531 -4.4375 L 3.894531 0 L 3.117188 0 L 2.960938 -0.425781 C 2.714844 -0.121094 2.363281 0.0976562 1.941406 0.0976562 C 1.515625 0.0976562 1.226562 -0.0117188 1.007812 -0.207031 C 0.789062 -0.386719 0.644531 -0.617188 0.546875 -0.859375 C 0.4375 -1.140625 0.386719 -1.46875 0.398438 -1.832031 L 0.398438 -7.082031 C 0.414062 -7.433594 0.484375 -7.761719 0.617188 -8.039062 C 0.726562 -8.285156 0.886719 -8.527344 1.128906 -8.707031 C 1.371094 -8.890625 1.710938 -9.011719 2.148438 -9.011719 C 2.582031 -9.011719 2.910156 -8.890625 3.152344 -8.707031 C 3.394531 -8.527344 3.566406 -8.285156 3.675781 -8.039062 C 3.808594 -7.761719 3.882812 -7.433594 3.894531 -7.082031 L 3.894531 -5.710938 Z M 2.582031 -5.710938 "/></g></g></g><g fill="#000000" fill-opacity="1"><g transform="translate(195.221202, 260.589483)"><g/></g></g><g fill="#000000" fill-opacity="1"><g transform="translate(198.046551, 260.589483)"><g><path d="M 0.121094 0 L 1.46875 -8.914062 L 3.066406 -8.914062 L 4.414062 0 L 3.140625 0 L 2.898438 -1.820312 L 1.636719 -1.820312 L 1.394531 0 Z M 2.339844 -6.015625 L 2.304688 -6.246094 L 2.230469 -6.246094 L 2.195312 -6.015625 L 1.820312 -3.203125 L 2.714844 -3.203125 Z M 2.339844 -6.015625 "/></g></g></g><g fill="#000000" fill-opacity="1"><g transform="translate(203.539375, 260.589483)"><g><path d="M 1.867188 -4.644531 L 1.757812 -5.058594 L 1.6875 -5.058594 L 1.6875 0 L 0.484375 0 L 0.484375 -8.914062 L 1.648438 -8.914062 L 2.921875 -4.269531 L 3.03125 -3.855469 L 3.105469 -3.855469 L 3.105469 -8.914062 L 4.304688 -8.914062 L 4.304688 0 L 3.140625 0 Z M 1.867188 -4.644531 "/></g></g></g><g fill="#000000" fill-opacity="1"><g transform="translate(209.286817, 260.589483)"><g><path d="M 0.484375 -8.914062 L 1.792969 -8.914062 L 1.792969 0 L 0.484375 0 Z M 0.484375 -8.914062 "/></g></g></g><g fill="#000000" fill-opacity="1"><g transform="translate(212.524415, 260.589483)"><g><path d="M 2.65625 0 L 1.820312 -5.601562 L 1.769531 -5.980469 L 1.699219 -5.980469 L 1.699219 0 L 0.484375 0 L 0.484375 -8.914062 L 2.085938 -8.914062 L 2.863281 -4.839844 L 2.921875 -4.367188 L 2.945312 -4.367188 L 3.007812 -4.839844 L 3.785156 -8.914062 L 5.382812 -8.914062 L 5.382812 0 L 4.171875 0 L 4.171875 -5.980469 L 4.097656 -5.980469 L 4.050781 -5.601562 L 3.214844 0 Z M 2.65625 0 "/></g></g></g><g fill="#000000" fill-opacity="1"><g transform="translate(219.350973, 260.589483)"><g><path d="M 0.121094 0 L 1.46875 -8.914062 L 3.066406 -8.914062 L 4.414062 0 L 3.140625 0 L 2.898438 -1.820312 L 1.636719 -1.820312 L 1.394531 0 Z M 2.339844 -6.015625 L 2.304688 -6.246094 L 2.230469 -6.246094 L 2.195312 -6.015625 L 1.820312 -3.203125 L 2.714844 -3.203125 Z M 2.339844 -6.015625 "/></g></g></g><g fill="#000000" fill-opacity="1"><g transform="translate(224.843798, 260.589483)"><g><path d="M 0.484375 -8.914062 L 1.792969 -8.914062 L 1.792969 -1.210938 L 3.527344 -1.210938 L 3.527344 0 L 0.484375 0 Z M 0.484375 -8.914062 "/></g></g></g><g fill="#000000" fill-opacity="1"><g transform="translate(229.378759, 260.589483)"><g><path d="M 2.65625 -6.523438 C 2.65625 -6.816406 2.644531 -7.144531 2.558594 -7.398438 C 2.472656 -7.640625 2.339844 -7.808594 2.132812 -7.808594 C 1.792969 -7.796875 1.6875 -7.445312 1.6875 -6.925781 C 1.6875 -6.621094 1.820312 -6.304688 2.011719 -5.96875 C 2.207031 -5.628906 2.460938 -5.277344 2.714844 -4.898438 C 3.019531 -4.449219 3.324219 -3.988281 3.554688 -3.542969 C 3.785156 -3.09375 3.941406 -2.632812 3.941406 -2.148438 C 3.941406 -1.550781 3.84375 -0.996094 3.566406 -0.582031 C 3.285156 -0.167969 2.839844 0.0976562 2.121094 0.0976562 C 1.285156 0.0976562 0.8125 -0.21875 0.546875 -0.703125 C 0.277344 -1.1875 0.21875 -1.832031 0.21875 -2.5 L 1.503906 -2.621094 C 1.503906 -2.242188 1.515625 -1.867188 1.613281 -1.589844 C 1.699219 -1.296875 1.84375 -1.105469 2.121094 -1.105469 C 2.511719 -1.105469 2.65625 -1.515625 2.65625 -2.085938 C 2.65625 -2.378906 2.511719 -2.714844 2.316406 -3.066406 C 2.207031 -3.238281 2.097656 -3.421875 1.976562 -3.601562 C 1.722656 -3.964844 1.441406 -4.378906 1.152344 -4.828125 C 0.859375 -5.277344 0.644531 -5.738281 0.507812 -6.210938 C 0.4375 -6.441406 0.398438 -6.683594 0.398438 -6.925781 C 0.398438 -7.410156 0.507812 -7.929688 0.789062 -8.332031 C 1.066406 -8.71875 1.492188 -9 2.109375 -9.011719 C 2.898438 -9.023438 3.359375 -8.695312 3.613281 -8.222656 C 3.867188 -7.738281 3.941406 -7.144531 3.941406 -6.644531 Z M 2.65625 -6.523438 "/></g></g></g></svg>